<svg id="Camada_1" data-name="Camada 1" xmlns="http://www.w3.org/2000/svg" viewBox="0 0 646.02 205.77"><title>logo_prefeitura</title><path d="M274.29,129.63a55,55,0,0,1-21-4,51.15,51.15,0,0,1-17.07-11.26,54.26,54.26,0,0,1-15.72-38.67v-.3a54.39,54.39,0,0,1,15.65-38.53A52.26,52.26,0,0,1,253.5,25.3a56.9,56.9,0,0,1,22-4.18,63.14,63.14,0,0,1,14.6,1.57,49.64,49.64,0,0,1,12,4.47,48.08,48.08,0,0,1,9.84,6.93,56.63,56.63,0,0,1,7.82,8.8L298,59.73a37.48,37.48,0,0,0-9.83-8.94,24.38,24.38,0,0,0-13-3.28,23.13,23.13,0,0,0-10.06,2.16,24.17,24.17,0,0,0-7.83,5.88,27.69,27.69,0,0,0-5.14,8.8,30.92,30.92,0,0,0-1.86,10.73v.3a31.92,31.92,0,0,0,1.86,11,27.39,27.39,0,0,0,5.14,8.87,24.06,24.06,0,0,0,7.83,5.89,23.13,23.13,0,0,0,10.06,2.16,28.93,28.93,0,0,0,7.38-.89,22.76,22.76,0,0,0,6.11-2.61,33,33,0,0,0,5.22-4,61.77,61.77,0,0,0,4.84-5.14l21.76,15.5a77.09,77.09,0,0,1-8.12,9.39,46.73,46.73,0,0,1-10,7.46,52.44,52.44,0,0,1-12.52,4.91A62.05,62.05,0,0,1,274.29,129.63Z" style="fill:#16403e"/><path d="M332.87,23.21h49.34q12.06,0,20.42,3a35,35,0,0,1,13.56,8.35q9.24,8.94,9.24,24.29v.3q0,12.08-5.81,20A36.76,36.76,0,0,1,404,91.18l24.89,36.37H395.47l-21-31.6H361.79v31.6H332.87Zm48,50.08q7.45,0,11.48-3.35a11.15,11.15,0,0,0,4-9v-.3q0-6.25-4.18-9.31t-11.47-3.06H361.79v25Z" style="fill:#16403e"/><path d="M487,129.48a66.44,66.44,0,0,1-20.12-2.83,38.87,38.87,0,0,1-15.21-8.72,38.41,38.41,0,0,1-9.61-14.9,60.78,60.78,0,0,1-3.35-21.24V23.21h29.51v58q0,11.32,5.17,16.77t13.91,5.44q8.71,0,13.9-5.22t5.17-16.24V23.21h29.52V81q0,12.67-3.51,21.84a37.8,37.8,0,0,1-25.19,23.77A67.15,67.15,0,0,1,487,129.48Z" style="fill:#16403e"/><path d="M549.74,106.53l52.31-58.87H551.53V23.21H642v21L589.68,103.1H642v24.45H549.74Z" style="fill:#16403e"/><path d="M235,148.06h17.33a26.6,26.6,0,0,1,6.94.85,15.76,15.76,0,0,1,5.27,2.45,11,11,0,0,1,3.33,3.8A10.43,10.43,0,0,1,269,160.1v.11a10.09,10.09,0,0,1-1.38,5.32,11.74,11.74,0,0,1-3.78,3.84,18.33,18.33,0,0,1-5.6,2.34,28.48,28.48,0,0,1-6.86.8h-8.75v11.57H235Zm16.67,18.73a11.88,11.88,0,0,0,7-1.8,5.49,5.49,0,0,0,2.55-4.65v-.11a5.36,5.36,0,0,0-2.58-4.83,12.92,12.92,0,0,0-6.93-1.62h-9v13Z" style="fill:#16403e"/><path d="M277,148.06h19.59a26.05,26.05,0,0,1,7.35.95,15.72,15.72,0,0,1,5.34,2.66,10.46,10.46,0,0,1,2.7,3.44,10,10,0,0,1,.94,4.33v.1a9.7,9.7,0,0,1-.79,4,10.12,10.12,0,0,1-2.16,3.14,12.72,12.72,0,0,1-3.3,2.31,18.11,18.11,0,0,1-4.24,1.47l11.87,13.63h-9.11l-10.83-12.55h-9.7v12.55H277Zm19,17.86a11.78,11.78,0,0,0,6.61-1.63,5,5,0,0,0,2.46-4.42v-.1a5,5,0,0,0-2.4-4.47,12.49,12.49,0,0,0-6.74-1.52H284.61v12.14Z" style="fill:#16403e"/><path d="M322.35,148.06h32.53v5.72H330V163h22.05v5.71H330v9.62H355.2v5.71H322.35Z" style="fill:#16403e"/><path d="M364.43,148.06h32.65v5.72h-25v9.93h22.17v5.71H372.09v14.66h-7.66Z" style="fill:#16403e"/><path d="M405.62,148.06h32.53v5.72H413.28V163h22.05v5.71H413.28v9.62h25.19v5.71H405.62Z" style="fill:#16403e"/><path d="M448.14,148.06h7.66v36h-7.66Z" style="fill:#16403e"/><path d="M478.41,153.93h-14v-5.87h35.68v5.87H486.19v30.15h-7.78Z" style="fill:#16403e"/><path d="M526.32,184.65a27.61,27.61,0,0,1-7.72-1,16.54,16.54,0,0,1-5.9-3,13.34,13.34,0,0,1-3.77-5,16.71,16.71,0,0,1-1.32-6.87V148.06h7.66v20.48c0,3.37,1,5.92,3,7.67s4.71,2.63,8.21,2.63,6.17-.84,8.15-2.53,3-4.18,3-7.51V148.06h7.67v20.43a17.18,17.18,0,0,1-1.35,7,13.67,13.67,0,0,1-3.8,5.07,16.14,16.14,0,0,1-5.94,3A28.19,28.19,0,0,1,526.32,184.65Z" style="fill:#16403e"/><path d="M555.84,148.06h19.59a26.05,26.05,0,0,1,7.35.95,15.72,15.72,0,0,1,5.34,2.66,10.46,10.46,0,0,1,2.7,3.44,9.85,9.85,0,0,1,.94,4.33v.1a9.7,9.7,0,0,1-.79,4,10.12,10.12,0,0,1-2.16,3.14,12.72,12.72,0,0,1-3.3,2.31,18.11,18.11,0,0,1-4.24,1.47l11.87,13.63H584L573.2,171.53h-9.7v12.55h-7.66Zm19,17.86a11.76,11.76,0,0,0,6.61-1.63,5,5,0,0,0,2.46-4.42v-.1a5,5,0,0,0-2.39-4.47,12.53,12.53,0,0,0-6.74-1.52H563.5v12.14Z" style="fill:#16403e"/><path d="M616.82,147.81H624l19.34,36.27h-8.17l-4.45-8.69H609.91l-4.52,8.69h-7.92Zm11,22-7.6-14.41-7.54,14.41Z" style="fill:#16403e"/><path d="M79.44,151.42a50.71,50.71,0,0,0,5.78,2.52c13,4.7,17.44,11,17.72,11.45l2.16,3.75,1.35,2.35,1.32-2.3,2.16-3.77c.24-.36,3.74-5.36,13.48-9.74,1.38-.62,2.81-1.2,4.25-1.72l1.58-.61c16-6.38,27.13-20.15,32.16-39.81a96.84,96.84,0,0,0,2.9-21.89.52.52,0,0,1-.11-.1c0-.13.08-.26.12-.39,0-2.71-.07-4.53-.11-5.1V36.19H149.49L137.06,17.05V5.84H75.83V17.05L63.39,36.19H48.69V86.12c-.21,3.08-1.43,27.6,11.17,47.46l0,0L62,136.51a49.35,49.35,0,0,0,15.34,13.77m82.23-37.22c-4.87,19.05-15.6,32.37-31,38.52-.5.2-1,.4-1.52.58-1.48.54-3,1.14-4.39,1.78-10.77,4.85-14.28,10.43-14.32,10.49l-1.85,3.23-1.89-3.27s-4.46-7.08-18.69-12.25a47.18,47.18,0,0,1-22.35-16.76l-2.05-2.83C49,112.87,50.47,88,50.6,86.19V38.09H64.42L77.74,17.61V7.75h57.41v9.86L148,37.45l.14.24.34.4h13.77v48A92,92,0,0,1,159.55,113.06Z" style="fill:#0a474c"/><path d="M87.63,123l.23.06.52,1.16,3.09-2.39c.07.57.13,1,.19,1.41h0l0,0h0v0h0a5.36,5.36,0,0,1,.26.77,51,51,0,0,1,.61,16.8c-.08.57.06,1,.59,1.15a21.15,21.15,0,0,0,2.33.64c.59.13,1-.07.92-.8a7.37,7.37,0,0,1,0-.94l-2.62-1,.06-.19,2.29.44c.68-2.11-.84-2.57-2.35-3l.14-.17,2.07.41c-.12-.86-.2-1.62-.36-2.37,0-.17-.28-.34-.47-.44a5,5,0,0,1-1.15-.71l1.52.36c-.34-1.11.23-2.49-1.47-2.87l1,0c-.3-.92.14-2.18-1.44-2.34l1-.1c-.55-.87.21-2.34-1.48-2.64l.82-.12c-.5-.89,0-2.19-1.49-2.62l.69-.18c-.15-.54-.31-1.1-.53-1.86l4.47,1.26c.07-.61.11-1,.18-1.67a3.71,3.71,0,0,1,.61,1,1.69,1.69,0,0,0,1.21,1.24,9.4,9.4,0,0,1,1.18.65l.51-.68c.48,2.11,2.72,2.65,3.68,4.32a16.17,16.17,0,0,0-1.91-4.62c-.91-1.48-1.9-2.88-3.93-3.19.2-.23.33-.36.53-.57a7.56,7.56,0,0,0-1.49-.59,9,9,0,0,0-1.72.08l1.39-1.11-1.11-.94c.28,0,.49-.13.61-.06,1.22.66,2.19-.11,3.29-.54l-.28-.8c2,.93,3.7-.44,5.54-.1-3.57-1.77-7.08-1.92-9.6-.45,0-.21-.07-.39-.11-.64-.89.45-1.93.69-1.88,2.06l-.58-.48L91.36,118,89.68,116l-.49.65c-.43-1.32-1.59-1.09-2.62-1.37l0,.65a.76.76,0,0,1-.25,0,5.44,5.44,0,0,0-4.17.26,25.86,25.86,0,0,0-2.78,1.28,18.34,18.34,0,0,0-2.79,1.83c.71-.16,1.42-.3,2.12-.48,1.27-.31,2.73.08,3.81-1,0,.22-.07.45-.11.67a4.39,4.39,0,0,0,4.18-.77,2.25,2.25,0,0,1,.08.24L85.92,119c.67.5,1.88.11,2,1.38-1.27-.12-1.69.9-2.37,1.66l.58.29c-2,1.6-2.17,3.82-2.34,6-.09,1.2,0,2.41-.07,3.73.65-1.45,1.28-2.74,1.79-4.07a5.53,5.53,0,0,0,.06-1.6l.56.35A4.35,4.35,0,0,0,87.63,123Z" style="fill:none"/><path d="M93.36,122.6c-.24.55.14.93.88,1.24.19-.15.6-.31.71-.58a.8.8,0,0,0-.69-1.11A1,1,0,0,0,93.36,122.6Z" style="fill:none"/><path d="M90.05,123.45c-.15.49-.09.92.48,1.09s.87-.16,1-.64a3,3,0,0,0,.08-.68C90.86,122.59,90.28,122.67,90.05,123.45Z" style="fill:none"/><path d="M104.56,164.39l1.89,3.27,1.85-3.23c0-.06,3.55-5.64,14.32-10.49,1.43-.64,2.91-1.24,4.39-1.78.52-.18,1-.38,1.52-.58,15.42-6.15,26.15-19.47,31-38.52a92,92,0,0,0,2.74-26.93v-48H148.52l-.34-.4-.14-.24L135.15,17.61V7.75H77.74v9.86L64.42,38.09H50.6v48.1C50.47,88,49,112.87,61.47,132.55l2.05,2.83a47.18,47.18,0,0,0,22.35,16.76C100.1,157.31,104.54,164.35,104.56,164.39Zm55.93-125V85.67s3.65,49.23-32.06,63.72c-.48.19-1,.38-1.44.56-1.6.59-3.07,1.2-4.44,1.83C111.22,157,107.69,163,107.69,163V39.38Zm-80.95-22V9h6.14V13h3.39V9h6.14V13h3.4V9h6.14V13h3.39V9h6.14V13h3.39V9h6.14l0,3.92h3.36V9h6.14v8.39L147.07,38H65.82ZM63,130.78h0c-12.52-19.7-10.6-45.27-10.6-45.27V39.38h53.73V162.8s-4.5-7.54-19.64-13A45.84,45.84,0,0,1,63,130.78Z" style="fill:none"/><path d="M152.73,56.1a.77.77,0,0,0-.1.38C152.67,56.35,152.7,56.23,152.73,56.1Z" style="fill:#102214"/><path d="M117.88,63.36c-.18.35-.68.92-.07,1.4s1-.19,1.31-.43c1.52-1.24,3.51-1.86,5-3.19a6.57,6.57,0,0,0,.59-.59c.93-1.08,1.1-2.62,1.55-4a12,12,0,0,0,2.85,1.26,1,1,0,0,0,1.12-1,1.46,1.46,0,0,0,.05-1.34,1.44,1.44,0,0,0-.64-1.43,7.23,7.23,0,0,0-1.4-.54c-.57-.19-1.14-.37-1.7-.62-.16-.07-.33-.15-.49-.24a15.83,15.83,0,0,0-1.71-3.45,22.37,22.37,0,0,0-4.79-5.07c-.43-.34-1.14-1.08-1.63-.65s.21,1.18.53,1.61A30.93,30.93,0,0,1,121.82,50a2.14,2.14,0,0,0-2-.12,5,5,0,0,0-1.14.65l-.7.59,1,.48c.4.2.84.5,1.24.71a6.45,6.45,0,0,1,.94,1.1h0v0a9.76,9.76,0,0,1,.94,1.7c0,1.42-1.35,3.55-2,4.64S118.5,62.13,117.88,63.36Zm8.44-8.42Z" style="fill:none"/><path d="M66.4,181.37l0-3.37-.59-3.17-.39-3a6.73,6.73,0,0,1,2.41,2.34A5.39,5.39,0,0,0,69.54,176c2.22-1.21,5.25-1.69,7.45-2.61a26.16,26.16,0,0,1-2.19-2l-2-2.15-.81-.59a4.46,4.46,0,0,1,1.78.79,3.5,3.5,0,0,0,3,.08,25.38,25.38,0,0,0,5.12-.11c1.11-.35,1.43-1.78,2.35-2s2.33-.7,2.33-.7l.94-1.53c.73-1.2-.8-1.58-.8-1.58l-1.81.2s-2.6,0-2.66-.35-3.1-.5-3.1-.5l-3.05-1.11L73,161.3l-5.48-1.14a2.49,2.49,0,0,1,.55,0,3.24,3.24,0,0,0,2.33-1.34,24,24,0,0,0,3.9-2.5c.71-.8.38-2.07,1-2.7S76.83,152,76.83,152a1.15,1.15,0,0,0,.1-1.27,1.82,1.82,0,0,0-1.86-.76,2.77,2.77,0,0,0-.71.54s-2,1.23-2.19,1-2.59,1.07-2.59,1.07l-2.8.56-2.56,1.08L59,156.08a5.67,5.67,0,0,0-2.54,2.75,67.41,67.41,0,0,1-10.13-13A88.68,88.68,0,0,1,41,135.61c-1.57-3.54-2.9-7.2-4.21-10.89l-.18-.51a20.24,20.24,0,0,0,.88-5.38c0-.35,0-.7,0-1.06a16.29,16.29,0,0,0,2.37,2.32,14.11,14.11,0,0,0,5.72,2.83l.53.11-.14-.55c-.49-1.93-2.2-4.21-4.57-6.09-.43-.34-.86-.66-1.3-1a15.63,15.63,0,0,0,2.27,0l1-.09a16,16,0,0,0,6.48-2.13l.5-.31-.51-.31a12.18,12.18,0,0,0-6.68-1.12c-.37,0-.75.06-1.13.11a20.36,20.36,0,0,0-2.4.43,19.59,19.59,0,0,0,1.81-1.83l.55.33s-.11-.8-.12-.83c.22-.27.43-.54.64-.82a17.27,17.27,0,0,0,3.06-6.18l.15-.66-.6.24a13.49,13.49,0,0,0-4.43,3.28A26.25,26.25,0,0,0,39,102c-.23-.41-.48-.81-.73-1.19A9.23,9.23,0,0,0,38,99.78l-.22-.71-.34.55a24.14,24.14,0,0,0-1.55-2,24.54,24.54,0,0,0,2.8,1,18.16,18.16,0,0,0,6.2.82,7.93,7.93,0,0,0,2.61-.57L48,98.7l-.44-.37a19.29,19.29,0,0,0-7.05-3.68,18.83,18.83,0,0,0-3.92-.73,17.78,17.78,0,0,0,1.76-1c2.81-1.77,4.9-4.12,5.6-6.28l.16-.49-.66,0a12,12,0,0,0-3.22.69,17.94,17.94,0,0,0-5.37-3l-1.12-.36a17.81,17.81,0,0,0-.44-1.78l.66-.34a10.38,10.38,0,0,0,2.8,1.26l.71.17-.32-.68a14.35,14.35,0,0,0-1.18-2,11.38,11.38,0,0,0,3.45-3.48l.3-.56-.61,0-.42,0a17,17,0,0,0-5.1,1.22l-.23-.22a19.45,19.45,0,0,0-1.64-1.41l.82.15a18.22,18.22,0,0,0,3.93.2,9.6,9.6,0,0,0,3.61-.84l.55-.27-.51-.35a14.5,14.5,0,0,0-5.9-2.19,16.67,16.67,0,0,0-3.16-.18l0-.47c.42-.32.8-.62,1.15-.93a13.55,13.55,0,0,0,4.33-6.35l.13-.58-.55.15a14.24,14.24,0,0,0-5.51,3.16,16.65,16.65,0,0,0-2.08,2.22q.13-.77.21-1.56c.31-3-.05-5.88-1-7.59l-.29-.54-.3.52q-.17.28-.33.6a22.07,22.07,0,0,0-5.16,5.32l-.12.17a13.5,13.5,0,0,0-1.5-.88,15.23,15.23,0,0,0-2-7.25l-.32-.48-.26.52A18,18,0,0,0,15.85,66a20.32,20.32,0,0,0,.56,5.09,24.72,24.72,0,0,0-2.3-2.27c-2.84-2.45-6-4.05-8.41-4.26l-.57-.06.23.55a17.83,17.83,0,0,0,4.79,6.25,20.41,20.41,0,0,0,3.28,2.32c-.73,0-1.47,0-2.23,0l-.8,0C7,73.83,4,74.72,2.21,76l-.51.38.58.25A18.83,18.83,0,0,0,10,77.86l.72,0a20.92,20.92,0,0,0,3.45-.5c-.29.34-.57.68-.83,1a25.74,25.74,0,0,0-2,3,11.76,11.76,0,0,0-2.05-.77l-.54-.13.13.56a11.11,11.11,0,0,0,1.22,3,10.19,10.19,0,0,0-.65,2.73l0,.64.55-.29a15.09,15.09,0,0,0,1.57-1c.33.42.68.82,1,1.2a19.82,19.82,0,0,0,3.72,3.12,34,34,0,0,0-3.44-.28c-1,0-2.05,0-3,.06A19.08,19.08,0,0,0,2.5,91.87l-.66.35.69.3a23.27,23.27,0,0,0,8.41,1.65c.91,0,1.82,0,2.71,0q.82,0,1.62-.15c-.61.35-1.2.72-1.79,1.11-3.25,2.18-5.64,4.71-6.4,6.77l-.23.62.62-.14a23.54,23.54,0,0,0,7.67-3.46,23.32,23.32,0,0,0,1.9-1.4,13.19,13.19,0,0,0,1.31,5.8,17.41,17.41,0,0,0,1,1.92c-.32-.2-.66-.4-1-.58A18.6,18.6,0,0,0,10,102H9.32l.39.56a15.09,15.09,0,0,0,5.12,4.29,21.4,21.4,0,0,0,3.86,1.68c-.86.1-1.74.24-2.62.43-3.54.76-6.57,2.07-8.11,3.52l-.54.51.72.11a18,18,0,0,0,3.94.13,24.76,24.76,0,0,0,3.66-.51,24.3,24.3,0,0,0,3.48-1c-.35.36-.69.75-1,1.14-2,2.44-3.2,5-3.17,6.84v.56l.48-.24a17.27,17.27,0,0,0,5.33-4.38,16.64,16.64,0,0,0,2-2.93c.1.33.22.66.35,1a16.44,16.44,0,0,0,.87,1.9,14.67,14.67,0,0,0-1.8-.61l-.55,1.89a9,9,0,0,1,2.5,1.47c.8.62,1.58,1.32,2.39,2s1.66,1.46,2.63,2.2a22.19,22.19,0,0,0,3.26,2.15c.12.45.23.89.35,1.33a91.94,91.94,0,0,0,4.12,11.45,83.6,83.6,0,0,0,5.61,10.84,70.31,70.31,0,0,0,7.32,9.75,58.6,58.6,0,0,0,6.19,5.92l-.19,0a5.69,5.69,0,0,0-1.66-1.21l-1.63.1s-2.94,1.06-3.21,2.29a11.12,11.12,0,0,1-1.9,3.19s-1.63,2.22-3.1,2.66a3.78,3.78,0,0,0-1.78,2.49A28.42,28.42,0,0,0,39.72,178c-.36,1.15.57,2.26.24,3.19s-.79,2.38-.79,2.38.14.37.66,1.69,1.69.23,1.69.23l.88-1.65s1.5-2.22,1.81-2.06,2.17-2.35,2.17-2.35L49,177.45l1.86-2a3.72,3.72,0,0,1-.59,1,3.94,3.94,0,0,0-.28,3.1,28.67,28.67,0,0,0-.24,5.33c.26,1.18,1.61,1.62,1.79,2.6s.51,2.47.51,2.47l1.4,1.09c1.1.85,1.56-.71,1.56-.71l-.07-1.9s.18-2.71.52-2.74.69-3.19.69-3.19l1.28-3.08.65-3.16.47-1.8a7.81,7.81,0,0,1,.16,3.77,3.91,3.91,0,0,0,.91,3,37.67,37.67,0,0,0,1.53,4.57,48.89,48.89,0,0,1,5.52-3.27C66.54,181.86,66.4,181.37,66.4,181.37Zm-28-73.78.3.33-.45.64C38.34,108.24,38.39,107.92,38.43,107.59ZM34.2,89.4c0-.59,0-1.2,0-1.86a19.77,19.77,0,0,0,3.36.61l-.53.32a15.76,15.76,0,0,0-2.78,2.22,2.12,2.12,0,0,1-.11-.21ZM30,78.27l0,0,.5.49.19.18c-.48.29-.94.59-1.37.9C29.55,79.3,29.77,78.79,30,78.27Zm-3-3.81.2.34c-.2.42-.37.81-.52,1.2a16.48,16.48,0,0,0-.9,3.31c-.19-.32-.39-.63-.59-.93s-.3-.43-.46-.64a7.21,7.21,0,0,1,.25-.91,8.64,8.64,0,0,1,1.22-2.33l.21-.27C26.62,74.32,26.82,74.39,27,74.46Zm-.71,9.63a.21.21,0,0,0,0,.06,2.25,2.25,0,0,0-.23.61,2.66,2.66,0,0,0-.07.39c-.07-.21-.12-.41-.19-.61-.12-.35-.24-.69-.37-1A9.24,9.24,0,0,0,26.3,84.09Zm-1-16.78a16.34,16.34,0,0,0,0,2.43l-.62-.67-.31-.3C24.71,68.28,25,67.79,25.29,67.31ZM22.36,71.5a15.36,15.36,0,0,0,3.83,2.63l-.18.2a7.66,7.66,0,0,0-1.34,2.38,5.27,5.27,0,0,0-.19.68,16.64,16.64,0,0,0-4-3.86A26.81,26.81,0,0,0,22.36,71.5Zm-3.14,3.42a1.8,1.8,0,0,0,.08.21l-.13,0A1.54,1.54,0,0,0,19.22,74.92Zm-.66,22.36V98a7.39,7.39,0,0,0-1-.8l-.1-.07c.41-.35.79-.7,1.15-1.06C18.58,96.46,18.56,96.87,18.56,97.28Zm.76-20.52-.23.52a16,16,0,0,0-1.15,6.89A19.8,19.8,0,0,0,18.25,87c-.32-.4-.66-.79-1-1.17a23.51,23.51,0,0,0-2.73-2.47c.4-.45.8-.92,1.16-1.4a19.71,19.71,0,0,0,3.42-6.53l.24.1.11,0a16.84,16.84,0,0,0,1.93,3.7,18.22,18.22,0,0,0,3.15,3.56c.61,2.59,1,5.21,1.49,7.83l.27,1.71A9.36,9.36,0,0,0,24,91.21,5.55,5.55,0,0,0,21.32,91,18.6,18.6,0,0,0,22,85.23c-.12-3.33-1-6.33-2.31-8Zm2.86,26.53A15.8,15.8,0,0,0,23,98.47a13.78,13.78,0,0,0-1.71-7.21s0,0,0-.06a6,6,0,0,1,.95,0,7.5,7.5,0,0,1,1.68.35,14.88,14.88,0,0,1,2.41,1c.51,3.29,1,6.59,1.59,9.88.24,1.41.5,2.82.76,4.24a24.81,24.81,0,0,0-5.28.51A16.48,16.48,0,0,0,22.18,103.29Zm6.1,14.17-.07,0a13.26,13.26,0,0,0-.91-3.77,13.56,13.56,0,0,0-3.79-5.47c0-.19-.06-.4-.08-.6l5.24-.83q.67,3.77,1.41,7.54c.27,1.34.55,2.69.84,4A16.27,16.27,0,0,1,28.28,117.46Zm2.6-15.1c0,.83.05,1.65.11,2.45l-.66-2.87c-.38-1.71-.78-3.41-1.18-5.12l.29-.14.75-.41a2.5,2.5,0,0,1,1.43-.4A26,26,0,0,0,30.88,102.36Zm.76-6.56a1.25,1.25,0,0,0-.76-.14A2.52,2.52,0,0,0,30,96a6.23,6.23,0,0,0-.93.66c-.51-2.1-1-4.21-1.6-6.31-.39-1.46-.82-2.9-1.28-4.34,0-.38,0-.77.06-1.15a2.72,2.72,0,0,1,.13-.58.08.08,0,0,1,0,0l.05,0a19.74,19.74,0,0,0,2.76,5c.39.53.83,1.06,1.29,1.58a19.06,19.06,0,0,0,1.13,5S31.65,95.77,31.64,95.8ZM31,83l-.28,0L31,82.8A.94.94,0,0,0,31,83Zm3.34,34.18q-.55-1.78-1.08-3.6c.42,0,.83,0,1.24,0s.68-.06,1-.11A15.19,15.19,0,0,0,34.29,117.14Zm1.28-4c-.38,0-.76,0-1.15,0a11.3,11.3,0,0,0-1.27.16c-.07-.28-.15-.56-.22-.84h0l.28-.73a21.24,21.24,0,0,0,1.14-7.46c0-1-.05-1.94-.14-2.89.2.41.42.81.65,1.2s.57,1,.93,1.51a25.33,25.33,0,0,0-.48,3.34A21.17,21.17,0,0,0,35.57,113.15Zm26.05,50.43a3.52,3.52,0,0,0-.9.69l-.5,0,.51-.71a2.72,2.72,0,0,0,1-.32C61.66,163.37,61.64,163.48,61.62,163.58Z" style="fill:#16403e"/><path d="M164.3,91.65c0-.16,0-.33,0-.49,0,.13-.09.26-.12.39A.52.52,0,0,0,164.3,91.65Z" style="fill:#0d532a"/><path d="M173.11,151.07a12.39,12.39,0,0,0-1.71,1c.86-1,1.69-2,2.48-3.08a69.8,69.8,0,0,0,7.93-13.44c1.06-2.36,2-4.77,2.84-7.21s1.5-4.92,2.12-7.41c.57-2.33,1-4.69,1.44-7.05a1.93,1.93,0,0,0,.54-.37l6.08-6.09a2,2,0,0,0-2.77-2.77l-3,3c.07-.59.15-1.18.21-1.77a143.77,143.77,0,0,0,.63-17.47,7.87,7.87,0,0,0,8.68-.23,9.45,9.45,0,0,0,4.4-7.38,9,9,0,0,0-9.4.55,11,11,0,0,0-3.78,4.07c-.14-3.26-.37-6.52-.69-9.76-.38,5.08-.83,10.15-1.42,15.17l-6.63-3a2.21,2.21,0,0,0-2.68.78,6.49,6.49,0,0,0-5.69.87,7.71,7.71,0,0,0-3.11,4.06c0,.16,0,.33,0,.5a5.37,5.37,0,0,0,6.69.24,7,7,0,0,0,2.64-3.3l.2.12,7.7,3.44a1.87,1.87,0,0,0,.4.13q-.72,5.35-1.7,10.64a140.69,140.69,0,0,1-3.48,14.34c-.7,2.34-1.51,4.64-2.37,6.92s-1.79,4.51-2.83,6.68c-.24.51-.49,1-.74,1.5a8.92,8.92,0,0,0-8.1-7.11A10.23,10.23,0,0,0,171.2,143c-.59.84-1.2,1.68-1.83,2.49a63.72,63.72,0,0,1-10,10.2A86.78,86.78,0,0,1,147.27,164l-3.3,1.94c-1.11.67-2.22,1.38-3.39,2.13a36.33,36.33,0,0,0-3.59,2.57,19.35,19.35,0,0,0-3.32,3.46c3.25.71,6.12,1.48,8.53,2.22a5.74,5.74,0,0,1,.3-.74,9.82,9.82,0,0,1,2-2.46,25.48,25.48,0,0,1,2.76-2.18c1-.7,2-1.39,3.06-2.07,4.18-2.72,8.63-5.4,12.7-8.66a60.51,60.51,0,0,0,4.72-4.2,12.68,12.68,0,0,0-1,2.2,10.46,10.46,0,0,0,18.66-5.62A11.82,11.82,0,0,0,173.11,151.07Z" style="fill:#16403e"/><path d="M194.46,92.37a10.87,10.87,0,0,0-4.58,6.29c2.33,2.37,6.32,2.67,9.65.49a9.45,9.45,0,0,0,4.33-7.43A9,9,0,0,0,194.46,92.37Z" style="fill:#16403e"/><path d="M189.49,77.68c2.41,2.32,6.4,2.5,9.67.23a9.42,9.42,0,0,0,4.12-7.54,9,9,0,0,0-9.37.9A11,11,0,0,0,189.49,77.68Z" style="fill:#16403e"/><path d="M196,65a9.42,9.42,0,0,0-3.73-7.74,9,9,0,0,0-4.72,8.15,10.83,10.83,0,0,0,2.64,7.32C193.42,72.12,195.9,69,196,65Z" style="fill:#16403e"/><path d="M178.54,87.12c2.91-1.62,4.27-5.38,3.06-9.18a9.41,9.41,0,0,0-6-6.15A9,9,0,0,0,173.72,81,10.91,10.91,0,0,0,178.54,87.12Z" style="fill:#16403e"/><path d="M187.77,79c2.07-2.62,1.88-6.61-.71-9.64a9.39,9.39,0,0,0-7.9-3.37A9,9,0,0,0,181,75.2,10.89,10.89,0,0,0,187.77,79Z" style="fill:#16403e"/><path d="M180,104.09a5.26,5.26,0,0,1,1-.2c-2.36.81-2.07,4.87,0,5.44s3.15-1.49,2-1.72a1.05,1.05,0,0,1-.42-2c.71-.48.72-1.16.28-1.56a2.42,2.42,0,0,0,1.42.2c1-.31,1.48-1.15,1-3a48.3,48.3,0,0,0-1.46-5.51c-.89-3.77-5.53-3.28-5.49.19a40.63,40.63,0,0,1-.65,6.49S177.51,104.83,180,104.09Z" style="fill:#16403e"/><path d="M171.34,107.59a4.88,4.88,0,0,1,1,0c-2.46.37-2.93,4.4-1,5.34s3.37-.88,2.25-1.32a1,1,0,0,1,0-2c.78-.34.92-1,.56-1.48a2.4,2.4,0,0,0,1.36.45c1.08-.11,1.67-.85,1.54-2.73a48.54,48.54,0,0,0-.41-5.68c-.18-3.87-4.83-4.25-5.43-.83a40.5,40.5,0,0,1-1.84,6.26S168.8,107.86,171.34,107.59Z" style="fill:#16403e"/><path d="M204.6,117.38a1.06,1.06,0,0,1-1.93-.63c-.06-.86-.64-1.21-1.21-1,.41-.38.77-.65.88-1.13.25-1.06-.26-1.85-2.07-2.35a46.23,46.23,0,0,0-5.5-1.49c-3.71-1.11-5.61,3.15-2.58,4.84a40.47,40.47,0,0,1,5.3,3.81,1.62,1.62,0,0,0,2.59-1.23,4.93,4.93,0,0,1,.31-1c-.47,2.45,3.19,4.23,4.71,2.73S205.38,116.46,204.6,117.38Z" style="fill:#16403e"/><path d="M201,127.7a1.06,1.06,0,0,1-1.62-1.22c.22-.83-.21-1.35-.81-1.37.51-.23.94-.36,1.2-.78.58-.92.36-1.84-1.19-2.9a44.45,44.45,0,0,0-4.71-3.2c-3.15-2.26-6.33,1.15-4,3.74a39.94,39.94,0,0,1,3.77,5.33,1.62,1.62,0,0,0,2.85-.33,5.55,5.55,0,0,1,.6-.8c-1.23,2.16,1.64,5,3.57,4.11S202,127.09,201,127.7Z" style="fill:#16403e"/><path d="M191,130.82a4.74,4.74,0,0,1,.87-.18c2.25-.28,1.36-2,1.36-2a31.85,31.85,0,0,1-2.81-4.59,2.43,2.43,0,0,0-4.53,1.71,33.71,33.71,0,0,0,.75,4.56c.25,1.5.9,2,1.86,1.86a2.31,2.31,0,0,0,1.11-.64c-.24.45,0,1,.75,1.08s1.23,1.05.35,1.6.73,1.73,2.21.61S193.21,130.63,191,130.82Z" style="fill:#16403e"/><polygon points="133.34 17.42 133.34 9.04 127.2 9.04 127.2 12.95 123.84 12.95 123.81 9.04 117.67 9.04 117.67 12.95 114.28 12.95 114.28 9.04 108.14 9.04 108.14 12.95 104.75 12.95 104.75 9.04 98.61 9.04 98.61 12.95 95.22 12.95 95.22 9.04 89.07 9.04 89.07 12.95 85.68 12.95 85.68 9.04 79.54 9.04 79.54 17.42 65.82 38.03 147.07 38.03 133.34 17.42" style="fill:#16403e"/><path d="M107.69,68.45s4.37-4.94,7.64-.55c2.88-4.45,5.92,1.54,5.92,1.54s1.11-4.34,4.65-2.25c.33-8.46,8.19-3.3,8.19-3.3s-.72-4.89,4.6-2.75c1.93-9.5,8.9-6.31,9.35-5.54.84-4.63,5.19-2.26,4.69.5.6-1.12,4.17.07,3.66,2.68.83-4.28,4.1-3.62,4.1-3.62V39.38h-52.8Zm13.4-15v0h0a6.45,6.45,0,0,0-.94-1.1c-.4-.21-.84-.51-1.24-.71l-1-.48.7-.59a5,5,0,0,1,1.14-.65,2.14,2.14,0,0,1,2,.12,30.93,30.93,0,0,0-3.37-4.94c-.32-.43-1-1.17-.53-1.61s1.2.31,1.63.65a22.37,22.37,0,0,1,4.79,5.07,15.83,15.83,0,0,1,1.71,3.45c.16.09.33.17.49.24.56.25,1.13.43,1.7.62a7.23,7.23,0,0,1,1.4.54,1.44,1.44,0,0,1,.64,1.43,1.46,1.46,0,0,1-.05,1.34,1,1,0,0,1-1.12,1,12,12,0,0,1-2.85-1.26c-.45,1.36-.62,2.9-1.55,4a6.57,6.57,0,0,1-.59.59c-1.49,1.33-3.48,2-5,3.19-.3.24-.72.9-1.31.43s-.11-1.05.07-1.4c.62-1.23,1.42-2.41,2.13-3.59s2-3.22,2-4.64A9.76,9.76,0,0,0,121.09,53.43Z" style="fill:#16403e"/><path d="M160.49,85.67V73.29h-52.8V163s3.53-6,14.86-11.19c-.3-.54-1.31-2.79.08-6.67a5.57,5.57,0,0,0-.93-7.34s3.62-2.6-.61-6.91c1.77-1.59,3.9-3.26-1.86-5.86.63-.79,2.43-1.7-.67-3.28a3.32,3.32,0,0,1,.06-6.15c1.64-1.07-.44-4.59-3-4.18-4.14.77-4.42-4.61-4.42-4.61s-5.5-2.25-.52-5.55c-1.45-5,3.81-4.5,3.81-4.5s2.77,0-.29-3.72c-2.72-4.57,2.66-6.23,2.66-6.23s4.41-1.19,1-4,.92-4.92.92-4.92-3.57-1.8-1.66-3.67l.41-.4h14c1.51,1.6.14,4.23-2.18,5.22,4.37,2.68,1.21,3.29,1.75,5,1.65,2.31,5.25,2,5.25,2s2.18,1.44,1.85,2.41c8.57.52,1.7,5.87,1.54,5.66,1.49,1.86,0,2.93,0,2.93s-5.28,3-4.94,3.93,1.4,1,.93,1.83c1.1,2.82-.62,6-.62,6s1.32.58.52,2.41c1.21,2-4.63,4.5-4.63,4.5s6,3.21-1.65,10.58c-.71.22,2.13,5.55-1.06,8,.65.9,2.62,1.09.08,4-.05.71,1.14,1.9.47,3.83-2.88,2.79-.87,6.64-.48,7.32C164.14,134.9,160.49,85.67,160.49,85.67Zm-4.32,6.2c0,.47-.32.95-.79.85a8.09,8.09,0,0,1-2-1,9.52,9.52,0,0,1-1.09,3.21,4.69,4.69,0,0,1-.42.47c-1.05,1.08-2.46,1.58-3.53,2.57-.21.2-.5.73-.92.35s-.08-.85.05-1.12c.44-1,1-2,1.5-2.9a10.7,10.7,0,0,0,1.43-3.74,9.11,9.11,0,0,0-.66-1.37h0a4.72,4.72,0,0,0-.67-.89c-.28-.17-.59-.41-.87-.57l-.68-.39.5-.47a3.33,3.33,0,0,1,.81-.53,1.33,1.33,0,0,1,1.44.1,25.14,25.14,0,0,0-2.38-4c-.22-.35-.71-.94-.37-1.29s.85.24,1.15.52A17.43,17.43,0,0,1,152,85.73a12.84,12.84,0,0,1,1.2,2.78l.35.2c.39.19.8.34,1.2.49a5.08,5.08,0,0,1,1,.44,1.24,1.24,0,0,1,.45,1.15A1.34,1.34,0,0,1,156.17,91.87Z" style="fill:#16403e"/><path d="M156.39,58.78c.51-2.61-3.06-3.8-3.66-2.68,0,.13-.06.25-.1.38a.77.77,0,0,1,.1-.38c.5-2.76-3.85-5.13-4.69-.5-.45-.77-7.42-4-9.35,5.54-5.32-2.14-4.6,2.75-4.6,2.75s-7.86-5.16-8.19,3.3c-3.54-2.09-4.65,2.25-4.65,2.25s-3-6-5.92-1.54c-3.27-4.39-7.64.55-7.64.55v4.84h52.8V55.16S157.22,54.5,156.39,58.78Zm-5.66,5.9a7,7,0,0,1-1.9-.12,7.37,7.37,0,0,1,0,2.73,4.89,4.89,0,0,1-.2.48c-.55,1.13-1.54,1.94-2.13,3-.12.21-.2.69-.65.54s-.3-.6-.27-.85c.08-.88.26-1.76.4-2.62a8.15,8.15,0,0,0,.11-3.23,6.43,6.43,0,0,0-.92-.81h0a3.94,3.94,0,0,0-.78-.44c-.28,0-.6-.12-.87-.16l-.65-.07.27-.51a2.57,2.57,0,0,1,.5-.64,1.25,1.25,0,0,1,1.19-.39,19.7,19.7,0,0,0-3-2.21c-.28-.19-.84-.47-.66-.84s.75-.09,1.07,0a13.9,13.9,0,0,1,3.87,2,10,10,0,0,1,1.74,1.69l.34,0c.37,0,.74,0,1.1,0a4.71,4.71,0,0,1,.92,0,.94.94,0,0,1,.69.72,1,1,0,0,1,.27.81A.62.62,0,0,1,150.73,64.68Z" style="fill:none"/><path d="M150.86,63a.94.94,0,0,0-.69-.72,4.71,4.71,0,0,0-.92,0c-.36,0-.73,0-1.1,0l-.34,0a10,10,0,0,0-1.74-1.69,13.9,13.9,0,0,0-3.87-2c-.32-.11-.89-.4-1.07,0s.38.65.66.84a19.7,19.7,0,0,1,3,2.21,1.25,1.25,0,0,0-1.19.39,2.57,2.57,0,0,0-.5.64l-.27.51.65.07c.27,0,.59.12.87.16a3.94,3.94,0,0,1,.78.44h0a6.43,6.43,0,0,1,.92.81,8.15,8.15,0,0,1-.11,3.23c-.14.86-.32,1.74-.4,2.62,0,.25-.18.7.27.85s.53-.33.65-.54c.59-1.08,1.58-1.89,2.13-3a4.89,4.89,0,0,0,.2-.48,7.37,7.37,0,0,0,0-2.73,7,7,0,0,0,1.9.12.62.62,0,0,0,.4-.88A1,1,0,0,0,150.86,63Z" style="fill:#16403e"/><path d="M126.32,54.94Z" style="fill:#0a474c"/><path d="M102,50.16l-.08,0H102S102,50.17,102,50.16Z" style="fill:#303030"/><path d="M63.34,129.64h0c-.1.33-.2.66-.29,1l-.06.15h0l.06-.14C63.14,130.31,63.24,130,63.34,129.64Z" style="fill:#0d532a"/><path d="M77.22,65.16a5.92,5.92,0,1,0,5.93-5.9A6,6,0,0,0,77.22,65.16Z" style="fill:#16403e"/><path d="M89.78,64.06v2.23l3.67-1.05,0-.14Z" style="fill:#16403e"/><path d="M83.07,75.47h.15c.34-1.21.68-2.42,1-3.64H82C82.38,73.06,82.73,74.26,83.07,75.47Z" style="fill:#16403e"/><path d="M75.79,72.44l.11.07,3.23-1.79-1.52-1.56Z" style="fill:#16403e"/><path d="M76.5,64.06l-3.66,1v.14l3.65,1Z" style="fill:#16403e"/><path d="M90.48,57.92l-.09-.08-3.23,1.78,1.52,1.56Z" style="fill:#16403e"/><path d="M79.17,60.16,75.9,58.35l-.09.09,1.79,3.23Z" style="fill:#16403e"/><path d="M87.14,70.71l3.26,1.81.08-.09-1.8-3.25Z" style="fill:#16403e"/><path d="M83.22,55.41h-.15c-.35,1.21-.69,2.42-1,3.65h2.22Z" style="fill:#16403e"/><path d="M106.12,84.9v-.75l-.3.75Z" style="fill:#0d532a"/><path d="M52.32,39.38V85.52s-1.92,25.55,10.59,45.25l.06-.15c.09-.33.19-.66.29-1C52,110.33,53.74,86.14,53.74,86.14V81h51.11v5.52c-1.51,3.9-3.07,7.74-6.47,10.47-2.16,1.74-4.71,2.84-6.92,4.51s-3,4-4,6.58c-2.37,6.23-7.3,8-13.24,9.63-3,.8-5.59,1.76-7.51,4.37a24.62,24.62,0,0,0-3.44,7.55c-.1.33-.2.67-.29,1a.78.78,0,0,0,0,.14h0a45.75,45.75,0,0,0,23.49,19c15.14,5.48,19.64,13,19.64,13V84.9h0V83.5h0V81h0v-.37h0V39.38Zm49.56,10.78s0,0,0,0h-.07Zm3,30H71l.14-4.43-.73-.86a1.78,1.78,0,0,1,.24-1.56c.66-.84-.11-2.42-.11-2.42a23,23,0,0,1-2.83-2.38,7.8,7.8,0,0,1-.6-2.68s.56-.3.63-.6a4.65,4.65,0,0,0-.43-1.83,4.45,4.45,0,0,1,.17-3.74s2.74-3.47,2.91-3.58c2.91-1.71,3.5-5.8,3.5-5.8L74,47.19s1.94-1,2.4-2.16a17.65,17.65,0,0,0,1-4.76c0-.2.67-.15.87-.1.36.08.91.83.91.83a2.29,2.29,0,0,0,1.72,1.5c.87.26,3.58.76,3.58.76s3.8,1.72,4.25,4.08c.07.37-.08,1.28,0,1.49,1.24,3.21,3,3,3.93,3.78,1.19,1,3.52,1.51,4.32,4.42.56,2,0,6.39,1.18,7.75.23.25.93-.32.93-.32l4.54-2.83a15.1,15.1,0,0,0-.82,2.9c0,.69.52,2,.27,2.72-.53,1.5-3.65,4.62-3,6.06.16.34,1.21-.14,1.21-.14s2.37-1.27,3.13,2.45c0,.22.21.74.42,1.36Zm-5.13,35,.28.8c-1.1.43-2.07,1.2-3.29.54-.12-.07-.33,0-.6.06l1.1.94-1.39,1.11a9,9,0,0,1,1.72-.08,7.32,7.32,0,0,1,1.49.59l-.53.57c2,.31,3,1.71,3.93,3.19a16.17,16.17,0,0,1,1.91,4.62c-1-1.67-3.2-2.21-3.68-4.32l-.51.68a9.31,9.31,0,0,0-1.17-.65A1.68,1.68,0,0,1,97.77,122a4.08,4.08,0,0,0-.62-1c-.07.64-.11,1.06-.18,1.67l-4.47-1.26c.22.76.38,1.32.54,1.86l-.69.18c1.5.43,1,1.73,1.49,2.62l-.83.12c1.69.3.93,1.77,1.48,2.64l-1,.1c1.59.16,1.15,1.42,1.44,2.34l-1,0c1.71.38,1.13,1.76,1.47,2.87l-1.51-.36a4.91,4.91,0,0,0,1.14.71c.19.1.44.27.48.44.15.75.23,1.51.35,2.37l-2.07-.41-.14.17c1.52.47,3,.93,2.35,3l-2.29-.44-.06.19,2.62,1a7.37,7.37,0,0,0,0,.94c.09.73-.33.93-.92.8A21,21,0,0,1,93,142c-.54-.18-.67-.58-.59-1.15a51.24,51.24,0,0,0-.62-16.8,5.36,5.36,0,0,0-.26-.77h0a3.72,3.72,0,0,1-.08.68c-.16.48-.46.81-1,.64s-.63-.6-.49-1.09c.23-.78.82-.86,1.59-.23v0h0v0h0c-.06-.42-.11-.84-.19-1.41l-3.09,2.39c-.2-.46-.36-.81-.52-1.16l-.23-.06A4.35,4.35,0,0,1,86,126.8l-.56-.35a4.91,4.91,0,0,1-.06,1.6c-.51,1.33-1.14,2.62-1.78,4.07,0-1.32,0-2.53.07-3.73.16-2.21.37-4.43,2.33-6l-.58-.29c.69-.76,1.11-1.78,2.38-1.66-.08-1.27-1.28-.88-2-1.38l.79-1.11a2.25,2.25,0,0,1-.08-.24,4.42,4.42,0,0,1-4.19.77l.12-.67c-1.09,1.09-2.55.7-3.81,1-.71.18-1.42.32-2.13.48a18.85,18.85,0,0,1,2.79-1.83,25.86,25.86,0,0,1,2.78-1.28,5.46,5.46,0,0,1,4.18-.26.78.78,0,0,0,.25,0l0-.65c1,.28,2.19,0,2.61,1.37l.49-.65L91.29,118l1.8-2.42.59.48c-.06-1.37,1-1.61,1.88-2.06,0,.25.07.43.1.64,2.52-1.47,6-1.32,9.6.45C103.42,114.79,101.67,116.16,99.72,115.23Zm-4.85,8c-.11.27-.52.43-.71.58-.74-.31-1.12-.69-.88-1.24a1,1,0,0,1,.91-.45A.79.79,0,0,1,94.87,123.26Z" style="fill:#16403e"/><path d="M149.7,187.34c.19-1.13,7.71-1.41,7.71-1.41a60.49,60.49,0,0,0-11.51-5.1V176.3a72.53,72.53,0,0,0-8.45-3c-2.41-.73-5.28-1.51-8.52-2.22a112.89,112.89,0,0,0-20.6-2.55l-2.67,0a99.17,99.17,0,0,0-28.31,3.9c-2.72.8-5.47,1.73-8.24,2.83-.91.36-1.81.73-2.73,1.12V182l-1,.36a59.4,59.4,0,0,0-6.89,3c-1.62.81-2.65,1.41-2.65,1.41a51.44,51.44,0,0,1,5.48.51c1.21.21,2.16.5,2.23.89a5.1,5.1,0,0,0-.9.83c-1.66,1.81-4.29,5.76-4.37,7.07,11.66-6,18.52-2.61,18.52-2.61s-.55-3.4-1.09-7.44c27.51-8.43,50.13-3.81,61.76,0-.5,3.72-1,6.71-1,6.71s6.86-3.47,18.51,2.64C154.87,193.73,151,188.18,149.7,187.34Z" style="fill:#16403e"/></svg>